<svg width="87" height="56" viewBox="0 0 87 56" fill="none" xmlns="http://www.w3.org/2000/svg">
<g clip-path="url(#clip0_2899_1887)">
<path d="M134.387 47.9548V46.8635L135.457 46.6509V38.2112L134.323 37.9987V36.9003H137.236V46.6509L138.306 46.8635V47.9548H134.387Z" fill="#110F10"/>
<path d="M129.767 47.9548V46.8635L130.83 46.6509V41.5985L129.703 41.3859V40.2875H132.616V46.6509L133.671 46.8635V47.9548H129.767ZM130.759 38.5514V36.9003H132.616V38.5514H130.759Z" fill="#110F10"/>
<path d="M125.735 48.1036C125.187 48.1036 124.674 48.0516 124.197 47.9477C123.725 47.8391 123.25 47.6808 122.773 47.4729L122.752 45.4463H124.034L124.304 46.5517C124.507 46.6415 124.715 46.7123 124.927 46.7643C125.144 46.8116 125.385 46.8352 125.65 46.8352C126.16 46.8352 126.519 46.7454 126.727 46.5659C126.94 46.3864 127.046 46.1643 127.046 45.8998C127.046 45.6447 126.935 45.4274 126.713 45.2479C126.496 45.0636 126.077 44.9054 125.459 44.7731C124.542 44.5747 123.867 44.2865 123.432 43.9086C123.002 43.5259 122.787 43.0299 122.787 42.4205C122.787 42 122.898 41.6197 123.12 41.2796C123.347 40.9394 123.678 40.6678 124.112 40.4647C124.552 40.2568 125.09 40.1529 125.728 40.1529C126.309 40.1529 126.824 40.2143 127.273 40.3371C127.726 40.4552 128.111 40.6135 128.428 40.8119L128.47 42.7606H127.202L126.982 41.7473C126.836 41.6433 126.666 41.563 126.472 41.5063C126.278 41.4496 126.056 41.4213 125.806 41.4213C125.414 41.4213 125.104 41.5087 124.878 41.6835C124.651 41.8536 124.537 42.0685 124.537 42.3283C124.537 42.4795 124.573 42.6165 124.644 42.7393C124.719 42.8622 124.861 42.9755 125.069 43.0795C125.281 43.1787 125.591 43.2755 125.997 43.37C126.994 43.6015 127.707 43.9038 128.137 44.277C128.567 44.6503 128.782 45.1439 128.782 45.7581C128.782 46.4431 128.532 47.0052 128.031 47.4446C127.53 47.8839 126.765 48.1036 125.735 48.1036Z" fill="#110F10"/>
<path d="M116.948 48.1036C116.169 48.1036 115.561 47.9028 115.127 47.5013C114.692 47.0997 114.475 46.547 114.475 45.8431C114.475 45.1203 114.77 44.5345 115.361 44.0857C115.951 43.6369 116.794 43.4125 117.89 43.4125H119.06V42.7677C119.06 42.3614 118.937 42.0378 118.691 41.7969C118.45 41.5559 118.098 41.4355 117.635 41.4355C117.371 41.4355 117.137 41.4685 116.934 41.5347C116.731 41.5961 116.549 41.6859 116.388 41.804L116.225 42.8385H114.914L114.9 40.9465C115.278 40.7009 115.698 40.5072 116.161 40.3655C116.624 40.219 117.139 40.1458 117.706 40.1458C118.679 40.1458 119.445 40.3749 120.002 40.8331C120.564 41.2867 120.845 41.9386 120.845 42.7889V46.1691C120.845 46.273 120.845 46.3746 120.845 46.4738C120.85 46.573 120.857 46.6698 120.867 46.7643L121.646 46.8635V47.9548H119.315C119.268 47.7894 119.223 47.6288 119.18 47.4729C119.142 47.317 119.114 47.1611 119.095 47.0052C118.84 47.3265 118.531 47.591 118.167 47.7989C117.808 48.002 117.402 48.1036 116.948 48.1036ZM117.352 46.7218C117.711 46.7218 118.046 46.6391 118.358 46.4738C118.67 46.3037 118.904 46.0911 119.06 45.836V44.5534H117.869C117.335 44.5534 116.931 44.6786 116.657 44.929C116.388 45.1746 116.254 45.4628 116.254 45.7935C116.254 46.0911 116.348 46.3202 116.537 46.4809C116.726 46.6415 116.998 46.7218 117.352 46.7218Z" fill="#110F10"/>
<path d="M108.388 47.9548V46.8635L109.451 46.6509V41.5985L108.331 41.3859V40.2875H111.095L111.187 41.2512L111.201 41.4071C111.404 41.0009 111.652 40.6891 111.945 40.4717C112.243 40.2544 112.59 40.1458 112.987 40.1458C113.119 40.1458 113.258 40.1576 113.405 40.1812C113.556 40.2048 113.679 40.2308 113.773 40.2592L113.568 41.9103L112.569 41.8536C112.243 41.8347 111.974 41.8984 111.761 42.0449C111.553 42.1913 111.378 42.3945 111.237 42.6543V46.6509L112.299 46.8635V47.9548H108.388Z" fill="#110F10"/>
<path d="M98.8286 47.9548V46.8635L99.9553 46.6509V38.9482L98.8286 38.7356V37.6373H103.357C104.514 37.6373 105.416 37.8735 106.064 38.3459C106.716 38.8136 107.041 39.5151 107.041 40.4505C107.041 40.9182 106.907 41.3386 106.638 41.7118C106.368 42.0803 105.995 42.3543 105.518 42.5338C105.934 42.6236 106.283 42.7866 106.567 43.0228C106.85 43.259 107.065 43.5472 107.212 43.8873C107.363 44.2227 107.438 44.5912 107.438 44.9928C107.438 45.9612 107.119 46.6982 106.482 47.2037C105.849 47.7044 104.965 47.9548 103.831 47.9548H98.8286ZM101.741 46.5801H103.831C104.417 46.5801 104.866 46.4454 105.178 46.1762C105.494 45.9022 105.653 45.5077 105.653 44.9928C105.653 44.4495 105.518 44.0267 105.249 43.7243C104.984 43.422 104.571 43.2708 104.009 43.2708H101.741V46.5801ZM101.741 41.9882H103.555C104.084 41.9882 104.5 41.8606 104.802 41.6055C105.105 41.3504 105.256 40.9938 105.256 40.5355C105.256 40.0206 105.095 39.6403 104.774 39.3946C104.453 39.1443 103.98 39.0191 103.357 39.0191H101.741V41.9882Z" fill="#110F10"/>
<path d="M156.411 36.5389C156.265 36.5389 156.095 36.5247 155.901 36.4964C155.712 36.468 155.547 36.4326 155.405 36.3901L155.603 35.0508C155.688 35.065 155.79 35.0768 155.908 35.0862C156.031 35.0957 156.128 35.1004 156.199 35.1004C156.496 35.1004 156.747 35.0059 156.95 34.817C157.153 34.6327 157.318 34.3752 157.446 34.0446L157.68 33.4281L155.058 27.0009L154.165 26.8733V25.7749H157.878V26.8733L156.936 27.015L158.268 30.5865L158.502 31.2526H158.544L160.117 27.0079L159.175 26.8733V25.7749H162.697V26.8733L161.868 26.9938L158.898 34.5973C158.757 34.9563 158.58 35.2823 158.367 35.5752C158.159 35.8728 157.895 36.1066 157.573 36.2767C157.257 36.4515 156.869 36.5389 156.411 36.5389Z" fill="#110F10"/>
<path d="M141.381 33.4422V32.3509L142.451 32.1384V27.0859L141.325 26.8733V25.7749H144.088L144.173 26.7812C144.424 26.4174 144.735 26.1363 145.109 25.9379C145.487 25.7348 145.924 25.6332 146.42 25.6332C146.92 25.6332 147.348 25.7466 147.702 25.9734C148.061 26.1954 148.333 26.5332 148.517 26.9867C148.753 26.5662 149.063 26.2355 149.445 25.9946C149.833 25.7537 150.286 25.6332 150.806 25.6332C151.576 25.6332 152.181 25.8954 152.62 26.4198C153.064 26.9442 153.286 27.7378 153.286 28.8008V32.1384L154.356 32.3509V33.4422H150.494V32.3509L151.5 32.1384V28.7937C151.5 28.1465 151.392 27.6929 151.174 27.4331C150.957 27.1733 150.638 27.0434 150.218 27.0434C149.826 27.0434 149.502 27.1686 149.247 27.4189C148.997 27.6693 148.834 27.9882 148.758 28.3756V32.1384L149.729 32.3509V33.4422H146.009V32.3509L146.979 32.1384V28.7937C146.979 28.1701 146.868 27.7236 146.646 27.4544C146.424 27.1804 146.103 27.0434 145.683 27.0434C145.333 27.0434 145.038 27.1142 144.797 27.256C144.561 27.3977 144.372 27.5985 144.23 27.8583V32.1384L145.229 32.3509V33.4422H141.381Z" fill="#110F10"/>
<path d="M137.441 33.591C136.719 33.591 136.088 33.4304 135.549 33.1092C135.016 32.7832 134.6 32.3344 134.302 31.7628C134.009 31.1912 133.863 30.5369 133.863 29.7999V29.5023C133.863 28.7559 134.007 28.0921 134.295 27.5111C134.588 26.93 134.99 26.4718 135.5 26.1363C136.01 25.8009 136.591 25.6332 137.243 25.6332C137.937 25.6332 138.518 25.7726 138.986 26.0513C139.459 26.33 139.815 26.7269 140.056 27.2418C140.297 27.752 140.418 28.3661 140.418 29.0842V30.1046H135.712L135.698 30.14C135.717 30.5416 135.8 30.8983 135.946 31.2101C136.097 31.5219 136.31 31.7675 136.584 31.947C136.863 32.1266 137.2 32.2163 137.597 32.2163C138.013 32.2163 138.391 32.1596 138.731 32.0462C139.071 31.9329 139.385 31.7722 139.674 31.5644L140.233 32.684C139.931 32.9391 139.546 33.1541 139.078 33.3288C138.611 33.5036 138.065 33.591 137.441 33.591ZM135.741 28.8504H138.71V28.6661C138.71 28.3307 138.658 28.0378 138.554 27.7874C138.455 27.5323 138.296 27.3339 138.079 27.1922C137.867 27.0505 137.595 26.9796 137.264 26.9796C136.976 26.9796 136.723 27.0599 136.506 27.2205C136.289 27.3811 136.114 27.6008 135.982 27.8795C135.854 28.1535 135.767 28.4653 135.719 28.8149L135.741 28.8504Z" fill="#110F10"/>
<path d="M128.251 33.591C127.632 33.591 127.103 33.4351 126.663 33.1233C126.224 32.8116 125.886 32.3769 125.65 31.8195C125.418 31.2573 125.303 30.603 125.303 29.8566V29.7078C125.303 28.8905 125.418 28.1772 125.65 27.5678C125.886 26.9583 126.224 26.4836 126.663 26.1434C127.107 25.8033 127.634 25.6332 128.243 25.6332C128.683 25.6332 129.065 25.7183 129.391 25.8883C129.722 26.0537 130.006 26.2922 130.242 26.604V23.6987L129.115 23.4861V22.3877H132.027V32.1384L133.09 32.3509V33.4422H130.483L130.341 32.5139C130.1 32.8682 129.805 33.1375 129.455 33.3218C129.11 33.5013 128.709 33.591 128.251 33.591ZM128.754 32.1809C129.094 32.1809 129.387 32.1077 129.632 31.9612C129.878 31.81 130.081 31.5927 130.242 31.3093V27.9291C130.086 27.6551 129.883 27.4402 129.632 27.2843C129.387 27.1237 129.099 27.0434 128.768 27.0434C128.38 27.0434 128.062 27.1568 127.811 27.3835C127.566 27.6055 127.384 27.9173 127.266 28.3189C127.147 28.7157 127.088 29.1787 127.088 29.7078V29.8566C127.088 30.5652 127.218 31.1298 127.478 31.5502C127.743 31.9707 128.168 32.1809 128.754 32.1809Z" fill="#110F10"/>
<path d="M119.697 33.591C118.918 33.591 118.311 33.3903 117.876 32.9887C117.442 32.5872 117.224 32.0344 117.224 31.3305C117.224 30.6077 117.52 30.0219 118.11 29.5732C118.701 29.1244 119.544 28.9 120.64 28.9H121.809V28.2551C121.809 27.8488 121.686 27.5252 121.441 27.2843C121.2 27.0434 120.848 26.9229 120.385 26.9229C120.12 26.9229 119.886 26.956 119.683 27.0221C119.48 27.0835 119.298 27.1733 119.138 27.2914L118.975 28.326H117.664L117.65 26.434C118.027 26.1883 118.448 25.9946 118.911 25.8529C119.374 25.7064 119.889 25.6332 120.456 25.6332C121.429 25.6332 122.194 25.8623 122.752 26.3206C123.314 26.7741 123.595 27.426 123.595 28.2764V31.6565C123.595 31.7604 123.595 31.862 123.595 31.9612C123.6 32.0604 123.607 32.1573 123.616 32.2517L124.396 32.3509V33.4422H122.064C122.017 33.2769 121.972 33.1163 121.93 32.9604C121.892 32.8045 121.863 32.6486 121.845 32.4927C121.59 32.8139 121.28 33.0785 120.916 33.2863C120.557 33.4895 120.151 33.591 119.697 33.591ZM120.101 32.2092C120.46 32.2092 120.796 32.1266 121.108 31.9612C121.419 31.7911 121.653 31.5786 121.809 31.3234V30.0408H120.619C120.085 30.0408 119.681 30.166 119.407 30.4164C119.138 30.6621 119.003 30.9502 119.003 31.2809C119.003 31.5786 119.098 31.8077 119.286 31.9683C119.475 32.1289 119.747 32.2092 120.101 32.2092Z" fill="#110F10"/>
<path d="M113.029 33.591C112.311 33.591 111.688 33.4281 111.159 33.1021C110.634 32.7714 110.228 32.3179 109.94 31.7415C109.656 31.1605 109.515 30.492 109.515 29.7361V29.4881C109.515 28.7464 109.656 28.085 109.94 27.504C110.223 26.9229 110.627 26.467 111.152 26.1363C111.681 25.8009 112.304 25.6332 113.022 25.6332C113.679 25.6332 114.251 25.7395 114.737 25.9521C115.224 26.16 115.623 26.4198 115.935 26.7316L115.942 28.7795H114.581L114.319 27.426C114.187 27.289 114.019 27.1804 113.816 27.1001C113.613 27.015 113.391 26.9725 113.15 26.9725C112.758 26.9725 112.422 27.0788 112.144 27.2914C111.87 27.504 111.659 27.7992 111.513 28.1772C111.371 28.5504 111.3 28.9874 111.3 29.4881V29.7361C111.3 30.2747 111.374 30.7282 111.52 31.0967C111.666 31.4652 111.87 31.7439 112.129 31.9329C112.394 32.1218 112.696 32.2163 113.036 32.2163C113.447 32.2163 113.78 32.1053 114.036 31.8833C114.295 31.6612 114.465 31.3542 114.546 30.962H116.091L116.112 31.0046C116.055 31.5053 115.906 31.9518 115.665 32.3439C115.429 32.7312 115.094 33.0359 114.659 33.258C114.229 33.48 113.686 33.591 113.029 33.591Z" fill="#110F10"/>
<path d="M98.7365 33.4422V32.3509L99.4876 32.2447L102.903 23.1247H104.639L108.012 32.2447L108.763 32.3509V33.4422H105.483V32.3509L106.219 32.2163L105.674 30.5936H101.833L101.273 32.2163L102.017 32.3509V33.4422H98.7365ZM102.301 29.2259H105.213L103.874 25.4065L103.782 25.1301H103.739L103.64 25.4206L102.301 29.2259Z" fill="#110F10"/>
<path d="M124.176 19.0785C123.453 19.0785 122.823 18.9178 122.284 18.5966C121.75 18.2706 121.334 17.8218 121.037 17.2502C120.744 16.6786 120.597 16.0243 120.597 15.2873V14.9897C120.597 14.2433 120.742 13.5796 121.03 12.9985C121.323 12.4174 121.724 11.9592 122.234 11.6238C122.745 11.2884 123.326 11.1207 123.978 11.1207C124.672 11.1207 125.253 11.26 125.721 11.5387C126.193 11.8175 126.55 12.2143 126.791 12.7292C127.032 13.2394 127.152 13.8536 127.152 14.5716V15.5921H122.447L122.433 15.6275C122.452 16.029 122.534 16.3857 122.681 16.6975C122.832 17.0093 123.045 17.2549 123.319 17.4345C123.597 17.614 123.935 17.7037 124.332 17.7037C124.748 17.7037 125.126 17.6471 125.466 17.5337C125.806 17.4203 126.12 17.2597 126.408 17.0518L126.968 18.1714C126.666 18.4265 126.281 18.6415 125.813 18.8163C125.345 18.9911 124.8 19.0785 124.176 19.0785ZM122.475 14.3378H125.444V14.1536C125.444 13.8181 125.392 13.5252 125.288 13.2749C125.189 13.0198 125.031 12.8213 124.814 12.6796C124.601 12.5379 124.329 12.467 123.999 12.467C123.711 12.467 123.458 12.5473 123.241 12.708C123.023 12.8686 122.848 13.0883 122.716 13.367C122.589 13.641 122.501 13.9528 122.454 14.3024L122.475 14.3378Z" fill="#110F10"/>
<path d="M115.028 18.9297L112.54 12.4812L111.725 12.3607V11.2624H115.233V12.3607L114.347 12.5025L115.729 16.3503L115.913 16.9597H115.956L116.169 16.3503L117.565 12.5025L116.594 12.3607V11.2624H120.094V12.3607L119.258 12.4883L116.764 18.9297H115.028Z" fill="#110F10"/>
<path d="M107.318 18.9297V17.8384L108.381 17.6258V12.5733L107.254 12.3607V11.2624H110.167V17.6258L111.222 17.8384V18.9297H107.318ZM108.31 9.52625V7.87516H110.167V9.52625H108.31Z" fill="#110F10"/>
<path d="M98.8286 18.9297V17.8384L99.9553 17.6258V9.92308L98.8286 9.71049V8.61213H102.953V9.71049L101.741 9.92308V17.562H104.965L105.086 16.0031H106.453V18.9297H98.8286Z" fill="#110F10"/>
<path d="M86.9187 30.043L86.9552 30.371V30.4804L86.937 31.41C86.8762 37.1697 85.0231 40.8152 81.3777 42.3462C80.2598 42.808 78.9717 43.0389 77.5136 43.0389C75.5207 43.0389 73.5765 42.1457 71.6809 40.3595L70.8425 40.9428L70.0587 42.4738H60.7264L60.7082 28.2567L60.7082 9.42995C63.195 9.40569 66.8283 9.39356 71.608 9.39356C71.6322 10.5339 71.6627 9.52534 71.6627 11.1415C71.6627 12.7455 71.6505 21.2636 71.6262 22.6974C72.6955 21.7861 73.8317 21.0752 75.0347 20.5649C76.2377 20.0545 77.3799 19.7993 78.4614 19.7993C80.5393 19.7993 82.283 20.5041 83.6925 21.9137C83.972 22.1446 84.1847 22.3754 84.3305 22.6063C84.4763 22.8372 84.5857 22.983 84.6586 23.0438V23.0255L84.8409 23.1713C85.5821 24.1556 86.1714 25.4437 86.6089 27.0355C86.8276 27.9711 86.937 28.6759 86.937 29.1498C86.937 29.6237 86.9309 29.9214 86.9187 30.043ZM75.6544 32.1938C75.6544 31.0272 75.539 29.964 75.3081 29.004C74.8706 27.2056 74.2023 26.3064 73.3031 26.3064C72.574 26.3064 72.009 26.8775 71.608 28.0198C71.207 29.162 71.0065 30.766 71.0065 32.8317C71.0065 34.2413 71.365 35.4686 72.0819 36.5136C72.4707 37.0604 72.8778 37.3338 73.3031 37.3338C73.7406 37.3338 74.1172 37.1758 74.4332 36.8599C74.7491 36.5318 75.0286 35.9971 75.2716 35.2559C75.5268 34.5025 75.6544 33.8949 75.6544 33.4332C75.6544 32.9593 75.6483 32.7041 75.6362 32.6677V32.6312C75.6483 32.5826 75.6544 32.5158 75.6544 32.4307V32.1938Z" fill="#110F10"/>
<path d="M40.5344 30.3639L40.7167 30.3821H41.1542C41.5673 30.3821 41.8893 30.3517 42.1202 30.291L43.1045 30.1634C44.7814 30.0419 45.7899 29.5923 46.1302 28.8146C46.3003 28.4257 46.3853 27.9336 46.3853 27.3382C46.3124 27.2167 46.276 26.9858 46.276 26.6455C46.276 26.3053 46.0998 25.9468 45.7474 25.5701C45.4072 25.1935 45.0001 25.0051 44.5262 25.0051H44.435C43.2685 25.0051 42.6852 25.9954 42.6852 27.9761C42.6245 28.0733 42.5212 28.1098 42.3754 28.0855C42.2417 28.0612 41.9076 28.049 41.3729 28.049H31.9677C32.0285 27.2106 32.2472 26.3053 32.6239 25.3332C33.3408 23.4619 34.7261 22.1192 36.7797 21.305C38.8454 20.4787 40.8929 20.0291 42.9222 19.9562L44.0158 19.9015L44.5991 19.8468C44.672 19.8468 44.7449 19.8651 44.8178 19.9015H45.0548L45.875 19.8651C46.0451 19.8651 46.4279 19.9076 47.0233 19.9927L47.5519 20.0656C47.6369 20.0777 47.7706 20.0838 47.9529 20.0838C48.1351 20.0838 48.5179 20.1263 49.1012 20.2114C49.6844 20.2843 50.4135 20.4909 51.2884 20.8311C54.2534 21.9976 56.0518 24.2335 56.6836 27.5387C56.951 28.9361 57.0846 30.4854 57.0846 32.1866C57.1697 32.4661 57.2122 32.7212 57.2122 32.9521L57.1211 34.2098V36.3241C57.1332 36.3484 57.1393 36.4517 57.1393 36.634L57.1029 37.8734V38.0375C57.1393 38.0982 57.1575 38.1833 57.1575 38.2926L57.1393 38.4567V38.8395C57.1393 39.9938 57.3155 41.0875 57.6679 42.1203L57.8502 42.5213H49.6115L48.9554 42.5031C48.4693 42.5031 48.0987 42.5092 47.8435 42.5213C47.4547 41.7923 47.084 40.7958 46.7317 39.5321C46.5737 39.8602 46.3003 40.2369 45.9114 40.6622C45.5347 41.0753 45.2553 41.2819 45.073 41.2819C43.2746 42.1568 41.9076 42.655 40.9719 42.7765C39.5866 43.0074 38.8393 43.1228 38.73 43.1228C38.6328 43.1228 38.5841 43.1228 38.5841 43.1228C35.68 43.1228 33.4866 42.1143 32.0042 40.0971C31.2629 39.0643 30.8923 37.8674 30.8923 36.5064C30.8923 33.5536 32.2654 31.743 35.0116 31.0747C35.7164 30.9046 37.0774 30.7284 39.0945 30.5461L39.696 30.4915L40.5344 30.3639ZM46.5129 34.5926L46.5312 34.0093C46.5312 33.4017 46.4825 32.8184 46.3853 32.2595C46.118 32.4053 45.7292 32.5693 45.2188 32.7516C44.7084 32.9339 44.3014 33.0919 43.9976 33.2255C43.6938 33.347 43.4143 33.5718 43.1591 33.8999C42.9161 34.2159 42.7946 34.6533 42.7946 35.2123C42.7946 35.7712 42.9708 36.2816 43.3232 36.7433C43.6877 37.2051 44.0826 37.436 44.5079 37.436C45.4193 37.436 46.0694 37.1079 46.4582 36.4517L46.4947 36.2694L46.5129 35.1394V34.5926Z" fill="#110F10"/>
<path d="M2.3386 48.1394L6.85579 46.9702C9.31235 46.3344 12.697 45.1213 16.125 43.0547C20.5068 48.2767 26.1191 52.7406 32.3588 54.6406L36.8225 56L39.5412 47.0725L35.0775 45.7132C31.1124 44.5058 26.9335 41.4059 23.3134 37.1031C25.1541 35.0016 26.7737 32.5098 27.9702 29.563C30.4109 23.5519 31.4477 16.8823 29.1784 10.1628C28.4993 8.07301 27.2894 5.36741 25.208 3.30149C21.3059 -0.675897 14.9233 -1.33525 10.3465 2.84578C10.343 2.8489 10.3396 2.85197 10.3361 2.8551C10.332 2.85891 10.3275 2.86243 10.3234 2.86626C6.46347 6.37982 5.54111 11.3252 5.33749 14.7381L5.33674 14.7466L5.33643 14.755C5.19151 17.3423 5.43767 19.8062 5.85821 22.1276C6.64629 26.5314 8.40095 31.0954 10.8052 35.3625C8.57764 36.6398 6.33576 37.4652 4.51727 37.9358L0 39.1046L2.3386 48.1394ZM15.0411 20.4641C14.7126 18.651 14.561 16.9477 14.6535 15.2835C14.811 12.6681 15.4758 10.7911 16.6125 9.76126L16.624 9.7508L16.6351 9.74042C17.0319 9.37603 17.3512 9.32408 17.5657 9.33447C17.7991 9.3458 18.1334 9.44786 18.4776 9.76971L18.5466 9.83716L18.582 9.87327L18.6181 9.90831C19.1704 10.4474 19.7644 11.4789 20.2252 12.8139L20.3155 13.085L20.3256 13.117L20.3365 13.1488C21.6721 17.1033 21.2207 21.3795 19.3235 26.0521C18.9219 27.0412 18.4393 27.9589 17.8949 28.81C16.4995 25.9771 15.515 23.1177 15.0431 20.4753L15.0411 20.4641Z" fill="#110F10"/>
</g>
<defs>
<clipPath id="clip0_2899_1887">
<rect width="87" height="56" fill="white"/>
</clipPath>
</defs>
</svg>
