<svg width="140" height="48" viewBox="0 0 140 48" fill="none" xmlns="http://www.w3.org/2000/svg">
<path d="M115.189 41.1041V40.1687L116.106 39.9865V32.7525L115.134 32.5703V31.6288H117.631V39.9865L118.548 40.1687V41.1041H115.189Z" fill="white"/>
<path d="M111.229 41.1041V40.1687L112.14 39.9865V35.6558L111.174 35.4736V34.5322H113.671V39.9865L114.576 40.1687V41.1041H111.229ZM112.079 33.044V31.6288H113.671V33.044H112.079Z" fill="white"/>
<path d="M107.773 41.2317C107.303 41.2317 106.864 41.1871 106.455 41.098C106.05 41.0049 105.643 40.8692 105.234 40.6911L105.216 38.9539H106.315L106.546 39.9015C106.72 39.9784 106.898 40.0392 107.08 40.0837C107.267 40.1242 107.473 40.1444 107.7 40.1444C108.137 40.1444 108.445 40.0675 108.623 39.9136C108.805 39.7598 108.896 39.5694 108.896 39.3427C108.896 39.124 108.801 38.9377 108.611 38.7839C108.425 38.626 108.066 38.4903 107.536 38.3769C106.75 38.2069 106.171 37.9599 105.799 37.6359C105.43 37.3079 105.246 36.8827 105.246 36.3604C105.246 36 105.341 35.674 105.532 35.3825C105.726 35.0909 106.009 34.8581 106.382 34.684C106.758 34.5058 107.22 34.4167 107.767 34.4167C108.265 34.4167 108.706 34.4694 109.091 34.5747C109.48 34.6759 109.81 34.8115 110.081 34.9816L110.117 36.6519H109.03L108.842 35.7834C108.716 35.6943 108.571 35.6255 108.404 35.5769C108.238 35.5283 108.048 35.504 107.834 35.504C107.497 35.504 107.232 35.5789 107.038 35.7287C106.843 35.8745 106.746 36.0587 106.746 36.2814C106.746 36.411 106.777 36.5284 106.837 36.6337C106.902 36.739 107.024 36.8362 107.202 36.9253C107.384 37.0103 107.649 37.0933 107.998 37.1743C108.852 37.3727 109.463 37.6319 109.832 37.9518C110.2 38.2716 110.385 38.6948 110.385 39.2212C110.385 39.8083 110.17 40.2902 109.741 40.6668C109.312 41.0434 108.656 41.2317 107.773 41.2317Z" fill="white"/>
<path d="M100.241 41.2317C99.573 41.2317 99.0527 41.0596 98.6802 40.7154C98.3076 40.3712 98.1214 39.8974 98.1214 39.2941C98.1214 38.6745 98.3745 38.1724 98.8806 37.7878C99.3868 37.4031 100.11 37.2107 101.049 37.2107H102.051V36.658C102.051 36.3098 101.946 36.0324 101.735 35.8259C101.529 35.6194 101.227 35.5161 100.83 35.5161C100.604 35.5161 100.403 35.5445 100.229 35.6012C100.055 35.6538 99.899 35.7307 99.7613 35.832L99.6216 36.7188H98.498L98.4858 35.097C98.8098 34.8865 99.1701 34.7204 99.567 34.599C99.9638 34.4734 100.405 34.4107 100.891 34.4107C101.725 34.4107 102.381 34.6071 102.859 34.9998C103.341 35.3886 103.582 35.9474 103.582 36.6762V39.5735C103.582 39.6626 103.582 39.7496 103.582 39.8347C103.586 39.9197 103.592 40.0027 103.6 40.0837L104.268 40.1687V41.1041H102.27C102.229 40.9624 102.191 40.8247 102.154 40.6911C102.122 40.5575 102.098 40.4238 102.082 40.2902C101.863 40.5656 101.598 40.7923 101.286 40.9705C100.978 41.1446 100.63 41.2317 100.241 41.2317ZM100.587 40.0472C100.895 40.0472 101.183 39.9764 101.45 39.8347C101.717 39.6889 101.918 39.5067 102.051 39.288V38.1886H101.031C100.573 38.1886 100.227 38.2959 99.9921 38.5106C99.7613 38.7211 99.6459 38.9681 99.6459 39.2516C99.6459 39.5067 99.7269 39.7031 99.8889 39.8407C100.051 39.9784 100.284 40.0472 100.587 40.0472Z" fill="white"/>
<path d="M92.9039 41.1041V40.1687L93.815 39.9865V35.6558L92.8553 35.4736V34.5322H95.2241L95.3031 35.3582L95.3152 35.4918C95.4894 35.1436 95.7019 34.8763 95.953 34.6901C96.2081 34.5038 96.5057 34.4107 96.8459 34.4107C96.9592 34.4107 97.0787 34.4208 97.2042 34.441C97.3338 34.4613 97.4391 34.4836 97.5201 34.5079L97.3439 35.9231L96.4875 35.8745C96.2081 35.8583 95.9773 35.9129 95.7951 36.0385C95.6169 36.164 95.4671 36.3381 95.3456 36.5608V39.9865L96.2567 40.1687V41.1041H92.9039Z" fill="white"/>
<path d="M84.7102 41.1041V40.1687L85.676 39.9865V33.3842L84.7102 33.202V32.2605H88.5914C89.5835 32.2605 90.3569 32.463 90.9117 32.8679C91.4705 33.2688 91.7499 33.8701 91.7499 34.6718C91.7499 35.0727 91.6345 35.4331 91.4036 35.753C91.1728 36.0688 90.853 36.3037 90.444 36.4576C90.8003 36.5345 91.1 36.6742 91.3429 36.8767C91.5859 37.0791 91.7701 37.3261 91.8956 37.6177C92.0252 37.9052 92.09 38.221 92.09 38.5652C92.09 39.3953 91.8167 40.027 91.27 40.4603C90.7274 40.8895 89.9702 41.1041 88.9984 41.1041H84.7102ZM87.2066 39.9258H88.9984C89.5005 39.9258 89.8852 39.8104 90.1524 39.5796C90.4237 39.3447 90.5594 39.0066 90.5594 38.5652C90.5594 38.0996 90.444 37.7371 90.2132 37.478C89.9864 37.2188 89.6321 37.0893 89.1502 37.0893H87.2066V39.9258ZM87.2066 35.9899H88.7615C89.215 35.9899 89.5714 35.8806 89.8305 35.6619C90.0897 35.4432 90.2192 35.1375 90.2192 34.7447C90.2192 34.3034 90.0816 33.9774 89.8062 33.7668C89.5309 33.5522 89.1259 33.4449 88.5914 33.4449H87.2066V35.9899Z" fill="white"/>
<path d="M134.067 31.3191C133.941 31.3191 133.795 31.3069 133.629 31.2826C133.467 31.2583 133.326 31.2279 133.204 31.1915L133.374 30.0435C133.447 30.0557 133.534 30.0658 133.635 30.0739C133.741 30.082 133.824 30.0861 133.884 30.0861C134.14 30.0861 134.354 30.0051 134.528 29.8431C134.702 29.6852 134.844 29.4645 134.954 29.181L135.154 28.6526L132.907 23.1436L132.141 23.0343V22.0928H135.324V23.0343L134.516 23.1557L135.658 26.217L135.859 26.7879H135.895L137.243 23.1497L136.436 23.0343V22.0928H139.454V23.0343L138.744 23.1375L136.199 29.6548C136.077 29.9626 135.925 30.242 135.743 30.493C135.565 30.7481 135.338 30.9485 135.063 31.0943C134.792 31.2441 134.459 31.3191 134.067 31.3191Z" fill="white"/>
<path d="M121.184 28.6648V27.7294L122.101 27.5472V23.2165L121.135 23.0343V22.0928H123.504L123.577 22.9553C123.792 22.6435 124.059 22.4026 124.379 22.2325C124.703 22.0584 125.077 21.9713 125.503 21.9713C125.932 21.9713 126.298 22.0685 126.602 22.2629C126.91 22.4532 127.142 22.7427 127.3 23.1314C127.503 22.7711 127.768 22.4876 128.096 22.2811C128.428 22.0746 128.817 21.9713 129.262 21.9713C129.922 21.9713 130.441 22.1961 130.817 22.6455C131.198 23.095 131.388 23.7753 131.388 24.6864V27.5472L132.305 27.7294V28.6648H128.995V27.7294L129.857 27.5472V24.6803C129.857 24.1255 129.764 23.7368 129.578 23.5141C129.392 23.2914 129.119 23.18 128.758 23.18C128.422 23.18 128.145 23.2873 127.926 23.502C127.711 23.7166 127.572 23.9899 127.507 24.3219V27.5472L128.339 27.7294V28.6648H125.15V27.7294L125.982 27.5472V24.6803C125.982 24.1458 125.887 23.7631 125.697 23.5323C125.507 23.2975 125.231 23.18 124.871 23.18C124.571 23.18 124.318 23.2408 124.112 23.3623C123.909 23.4837 123.747 23.6558 123.626 23.8785V27.5472L124.482 27.7294V28.6648H121.184Z" fill="white"/>
<path d="M117.807 28.7923C117.187 28.7923 116.647 28.6546 116.185 28.3793C115.728 28.0999 115.371 27.7152 115.116 27.2253C114.865 26.7353 114.74 26.1745 114.74 25.5428V25.2877C114.74 24.6479 114.863 24.079 115.11 23.5809C115.361 23.0829 115.705 22.6901 116.143 22.4026C116.58 22.1151 117.078 21.9713 117.637 21.9713C118.232 21.9713 118.73 22.0908 119.131 22.3297C119.536 22.5686 119.842 22.9087 120.048 23.3501C120.255 23.7874 120.358 24.3138 120.358 24.9293V25.804H116.325L116.313 25.8343C116.329 26.1785 116.4 26.4842 116.525 26.7515C116.655 27.0187 116.837 27.2293 117.072 27.3832C117.311 27.537 117.6 27.614 117.941 27.614C118.297 27.614 118.621 27.5654 118.912 27.4682C119.204 27.371 119.473 27.2333 119.72 27.0552L120.2 28.0149C119.941 28.2335 119.611 28.4178 119.21 28.5676C118.809 28.7174 118.341 28.7923 117.807 28.7923ZM116.349 24.7289H118.894V24.571C118.894 24.2835 118.85 24.0324 118.76 23.8178C118.675 23.5991 118.54 23.4291 118.354 23.3076C118.171 23.1861 117.938 23.1254 117.655 23.1254C117.408 23.1254 117.191 23.1942 117.005 23.3319C116.819 23.4696 116.669 23.6578 116.556 23.8968C116.446 24.1316 116.371 24.3989 116.331 24.6985L116.349 24.7289Z" fill="white"/>
<path d="M109.929 28.7923C109.399 28.7923 108.945 28.6587 108.568 28.3914C108.192 28.1242 107.902 27.7517 107.7 27.2738C107.502 26.792 107.402 26.2312 107.402 25.5914V25.4638C107.402 24.7633 107.502 24.1519 107.7 23.6295C107.902 23.1071 108.192 22.7002 108.568 22.4086C108.949 22.1171 109.401 21.9713 109.923 21.9713C110.3 21.9713 110.628 22.0442 110.907 22.19C111.19 22.3317 111.433 22.5362 111.636 22.8035V20.3132L110.67 20.1309V19.1895H113.166V27.5472L114.078 27.7294V28.6648H111.842L111.721 27.8691C111.514 28.1728 111.261 28.4036 110.962 28.5615C110.666 28.7154 110.322 28.7923 109.929 28.7923ZM110.36 27.5836C110.652 27.5836 110.903 27.5208 111.113 27.3953C111.324 27.2657 111.498 27.0795 111.636 26.8365V23.9393C111.502 23.7044 111.328 23.5202 111.113 23.3865C110.903 23.2489 110.656 23.18 110.372 23.18C110.04 23.18 109.767 23.2772 109.552 23.4716C109.342 23.6619 109.186 23.9291 109.085 24.2733C108.984 24.6135 108.933 25.0103 108.933 25.4638V25.5914C108.933 26.1988 109.044 26.6826 109.267 27.043C109.494 27.4034 109.858 27.5836 110.36 27.5836Z" fill="white"/>
<path d="M102.598 28.7923C101.93 28.7923 101.409 28.6202 101.037 28.276C100.664 27.9318 100.478 27.4581 100.478 26.8547C100.478 26.2352 100.731 25.7331 101.237 25.3484C101.743 24.9637 102.466 24.7714 103.406 24.7714H104.408V24.2187C104.408 23.8704 104.303 23.5931 104.092 23.3865C103.886 23.18 103.584 23.0768 103.187 23.0768C102.96 23.0768 102.76 23.1051 102.586 23.1618C102.412 23.2145 102.256 23.2914 102.118 23.3926L101.978 24.2794H100.855L100.842 22.6577C101.166 22.4471 101.527 22.2811 101.924 22.1596C102.32 22.0341 102.762 21.9713 103.248 21.9713C104.082 21.9713 104.738 22.1677 105.216 22.5605C105.698 22.9492 105.938 23.508 105.938 24.2369V27.1341C105.938 27.2232 105.938 27.3103 105.938 27.3953C105.943 27.4804 105.949 27.5634 105.957 27.6443L106.625 27.7294V28.6648H104.627C104.586 28.523 104.548 28.3854 104.511 28.2517C104.479 28.1181 104.454 27.9845 104.438 27.8509C104.22 28.1262 103.954 28.353 103.643 28.5311C103.335 28.7053 102.987 28.7923 102.598 28.7923ZM102.944 27.6079C103.252 27.6079 103.539 27.537 103.807 27.3953C104.074 27.2495 104.274 27.0673 104.408 26.8487V25.7493H103.387C102.93 25.7493 102.584 25.8566 102.349 26.0712C102.118 26.2818 102.003 26.5288 102.003 26.8122C102.003 27.0673 102.084 27.2637 102.246 27.4014C102.408 27.5391 102.64 27.6079 102.944 27.6079Z" fill="white"/>
<path d="M96.8823 28.7923C96.2668 28.7923 95.7323 28.6526 95.2788 28.3732C94.8293 28.0898 94.4811 27.701 94.2341 27.207C93.9911 26.709 93.8697 26.136 93.8697 25.4881V25.2755C93.8697 24.6398 93.9911 24.0729 94.2341 23.5748C94.477 23.0768 94.8233 22.686 95.2727 22.4026C95.7262 22.1151 96.2607 21.9713 96.8762 21.9713C97.4391 21.9713 97.929 22.0624 98.3461 22.2447C98.7632 22.4228 99.1054 22.6455 99.3726 22.9128L99.3787 24.6681H98.2125L97.9878 23.508C97.8744 23.3906 97.7306 23.2975 97.5565 23.2286C97.3824 23.1557 97.1921 23.1193 96.9856 23.1193C96.6495 23.1193 96.362 23.2104 96.1231 23.3926C95.8882 23.5748 95.708 23.8279 95.5825 24.1519C95.461 24.4718 95.4003 24.8463 95.4003 25.2755V25.4881C95.4003 25.9497 95.463 26.3385 95.5886 26.6543C95.7141 26.9701 95.8882 27.2091 96.1109 27.371C96.3377 27.533 96.5968 27.614 96.8884 27.614C97.2407 27.614 97.5261 27.5188 97.7448 27.3285C97.9675 27.1382 98.1133 26.875 98.1821 26.5389H99.5062L99.5245 26.5753C99.4759 27.0046 99.3483 27.3872 99.1418 27.7233C98.9393 28.0553 98.6518 28.3165 98.2793 28.5068C97.9108 28.6972 97.4452 28.7923 96.8823 28.7923Z" fill="white"/>
<path d="M84.6313 28.6648V27.7294L85.2751 27.6383L88.2027 19.8212H89.6908L92.582 27.6383L93.2258 27.7294V28.6648H90.4136V27.7294L91.0453 27.614L90.5776 26.2231H87.2855L86.8057 27.614L87.4435 27.7294V28.6648H84.6313ZM87.6864 25.0508H90.1828L89.0348 21.777L88.9559 21.5401H88.9194L88.8344 21.7891L87.6864 25.0508Z" fill="white"/>
<path d="M106.437 16.353C105.817 16.353 105.276 16.2153 104.815 15.9399C104.357 15.6605 104.001 15.2759 103.746 14.7859C103.495 14.2959 103.369 13.7351 103.369 13.1034V12.8483C103.369 12.2086 103.493 11.6396 103.74 11.1416C103.991 10.6435 104.335 10.2507 104.772 9.96323C105.21 9.67573 105.708 9.53199 106.266 9.53199C106.862 9.53199 107.36 9.65144 107.761 9.89035C108.166 10.1293 108.471 10.4694 108.678 10.9108C108.884 11.3481 108.988 11.8745 108.988 12.49V13.3646H104.955L104.942 13.395C104.959 13.7392 105.029 14.0449 105.155 14.3121C105.285 14.5794 105.467 14.79 105.702 14.9438C105.941 15.0977 106.23 15.1746 106.57 15.1746C106.927 15.1746 107.25 15.126 107.542 15.0289C107.834 14.9317 108.103 14.794 108.35 14.6158L108.83 15.5755C108.571 15.7942 108.24 15.9784 107.84 16.1282C107.439 16.2781 106.971 16.353 106.437 16.353ZM104.979 12.2895H107.524V12.1316C107.524 11.8441 107.479 11.5931 107.39 11.3785C107.305 11.1598 107.169 10.9897 106.983 10.8682C106.801 10.7468 106.568 10.686 106.285 10.686C106.038 10.686 105.821 10.7549 105.635 10.8925C105.449 11.0302 105.299 11.2185 105.185 11.4574C105.076 11.6923 105.001 11.9595 104.961 12.2592L104.979 12.2895Z" fill="white"/>
<path d="M98.5951 16.2254L96.4632 10.6982L95.7647 10.5949V9.65346H98.7713V10.5949L98.0121 10.7164L99.1965 14.0145L99.3544 14.5369H99.3908L99.573 14.0145L100.77 10.7164L99.9375 10.5949V9.65346H102.938V10.5949L102.221 10.7042L100.083 16.2254H98.5951Z" fill="white"/>
<path d="M91.9867 16.2254V15.29L92.8978 15.1078V10.7771L91.9321 10.5949V9.65346H94.4285V15.1078L95.3335 15.29V16.2254H91.9867ZM92.8371 8.16536V6.75014H94.4285V8.16536H92.8371Z" fill="white"/>
<path d="M84.7102 16.2254V15.29L85.676 15.1078V8.5055L84.7102 8.32328V7.38183H88.2452V8.32328L87.2066 8.5055V15.0532H89.9702L90.0735 13.7169H91.2457V16.2254H84.7102Z" fill="white"/>
<path d="M74.5018 25.7511L74.533 26.0323V26.1261L74.5174 26.9228C74.4653 31.8598 72.877 34.9844 69.7523 36.2968C68.7941 36.6926 67.6901 36.8905 66.4402 36.8905C64.7321 36.8905 63.0656 36.1249 61.4408 34.5938L60.7221 35.0938L60.0503 36.4061H52.0512L52.0356 24.22L52.0356 8.08282C54.1672 8.06202 57.2814 8.05162 61.3783 8.05162C61.3991 9.02904 61.4251 8.16458 61.4251 9.54984C61.4251 10.9247 61.4147 18.2259 61.3939 19.455C62.3105 18.6738 63.2843 18.0645 64.3154 17.627C65.3466 17.1896 66.3256 16.9709 67.2526 16.9709C69.0337 16.9709 70.5283 17.575 71.7365 18.7832C71.976 18.981 72.1583 19.1789 72.2833 19.3768C72.4083 19.5747 72.502 19.6997 72.5645 19.7518V19.7362L72.7207 19.8612C73.3561 20.7048 73.8612 21.8088 74.2362 23.1733C74.4237 23.9753 74.5174 24.5794 74.5174 24.9856C74.5174 25.3918 74.5122 25.647 74.5018 25.7511ZM64.8466 27.5946C64.8466 26.5948 64.7477 25.6834 64.5498 24.8606C64.1748 23.3191 63.602 22.5483 62.8312 22.5483C62.2063 22.5483 61.722 23.0379 61.3783 24.0169C61.0346 24.996 60.8627 26.3708 60.8627 28.1415C60.8627 29.3497 61.17 30.4016 61.7845 31.2973C62.1178 31.766 62.4667 32.0004 62.8312 32.0004C63.2062 32.0004 63.5291 31.865 63.7999 31.5942C64.0707 31.313 64.3102 30.8547 64.5185 30.2193C64.7373 29.5736 64.8466 29.0528 64.8466 28.657C64.8466 28.2508 64.8414 28.0321 64.831 28.0008V27.9696C64.8414 27.9279 64.8466 27.8707 64.8466 27.7977V27.5946Z" fill="white"/>
<path d="M34.7438 26.0262L34.9 26.0418H35.275C35.6291 26.0418 35.9051 26.0158 36.103 25.9637L36.9467 25.8543C38.384 25.7502 39.2485 25.3648 39.5401 24.6982C39.686 24.3649 39.7589 23.9431 39.7589 23.4327C39.6964 23.3286 39.6651 23.1307 39.6651 22.839C39.6651 22.5474 39.5141 22.2401 39.2121 21.9173C38.9204 21.5944 38.5715 21.4329 38.1653 21.4329H38.0872C37.0873 21.4329 36.5873 22.2818 36.5873 23.9795C36.5353 24.0629 36.4467 24.0941 36.3218 24.0733C36.2072 24.0524 35.9208 24.042 35.4625 24.042H27.4009C27.453 23.3234 27.6405 22.5474 27.9633 21.7142C28.5779 20.1102 29.7652 18.9593 31.5254 18.2614C33.2961 17.5532 35.0511 17.1678 36.7905 17.1053L37.7278 17.0584L38.2278 17.0116C38.2903 17.0116 38.3528 17.0272 38.4153 17.0584H38.6184L39.3214 17.0272C39.4672 17.0272 39.7953 17.0637 40.3057 17.1366L40.7587 17.1991C40.8317 17.2095 40.9462 17.2147 41.1025 17.2147C41.2587 17.2147 41.5868 17.2511 42.0867 17.324C42.5867 17.3865 43.2116 17.5636 43.9615 17.8552C46.5029 18.8551 48.0444 20.7716 48.586 23.6046C48.8151 24.8024 48.9297 26.1303 48.9297 27.5885C49.0026 27.8281 49.0391 28.0468 49.0391 28.2447L48.9609 29.3227V31.135C48.9713 31.1558 48.9766 31.2443 48.9766 31.4006L48.9453 32.4629V32.6035C48.9766 32.6556 48.9922 32.7285 48.9922 32.8223L48.9766 32.9629V33.291C48.9766 34.2804 49.1276 35.2178 49.4296 36.1031L49.5859 36.4469H42.5242L41.9617 36.4312C41.5451 36.4312 41.2274 36.4364 41.0087 36.4469C40.6754 35.8219 40.3578 34.9679 40.0557 33.8847C39.9203 34.1659 39.686 34.4887 39.3527 34.8533C39.0298 35.2074 38.7902 35.3845 38.634 35.3845C37.0925 36.1344 35.9208 36.5614 35.1188 36.6656C33.9314 36.8635 33.2909 36.9624 33.1971 36.9624C33.1138 36.9624 33.0721 36.9624 33.0721 36.9624C30.5828 36.9624 28.7028 36.0979 27.4321 34.369C26.7968 33.4837 26.4791 32.4577 26.4791 31.2912C26.4791 28.7602 27.6561 27.2083 30.01 26.6355C30.6141 26.4897 31.7806 26.3386 33.5096 26.1824L34.0251 26.1355L34.7438 26.0262ZM39.8682 29.6508L39.8839 29.1508C39.8839 28.63 39.8422 28.1301 39.7589 27.651C39.5297 27.776 39.1964 27.9166 38.759 28.0728C38.3215 28.229 37.9726 28.3644 37.7122 28.479C37.4518 28.5832 37.2123 28.7759 36.9936 29.0571C36.7852 29.3279 36.6811 29.7028 36.6811 30.1819C36.6811 30.6611 36.8321 31.0985 37.1342 31.4943C37.4466 31.8901 37.7851 32.088 38.1497 32.088C38.9308 32.088 39.4881 31.8068 39.8214 31.2443L39.8526 31.0881L39.8682 30.1195V29.6508Z" fill="white"/>
<path d="M2.00452 41.2624L5.87639 40.2602C7.98201 39.7152 10.8831 38.6754 13.8214 36.904C17.5772 41.38 22.3878 45.2063 27.7361 46.8348L31.5622 48L33.8925 40.3479L30.0664 39.1827C26.6677 38.1478 23.0858 35.4907 19.9829 31.8026C21.5607 30.0014 22.9489 27.8655 23.9744 25.3397C26.0665 20.1873 26.9552 14.4705 25.01 8.71094C24.4279 6.91973 23.3909 4.60064 21.6069 2.82985C18.2622 -0.57934 12.7914 -1.1445 8.8684 2.43924C8.86545 2.44192 8.8625 2.44455 8.85955 2.44723C8.85598 2.4505 8.85217 2.45351 8.8486 2.45679C5.54012 5.46842 4.74952 9.70732 4.57499 12.6327L4.57435 12.64L4.57408 12.6472C4.44987 14.8648 4.66086 16.9767 5.02132 18.9665C5.69682 22.7412 7.20081 26.6532 9.26159 30.3107C7.35227 31.4055 5.43065 32.113 3.87194 32.5164L0 33.5183L2.00452 41.2624ZM12.8923 17.5407C12.6108 15.9866 12.4808 14.5266 12.5602 13.1001C12.6952 10.8584 13.265 9.24954 14.2393 8.3668L14.2491 8.35783L14.2586 8.34893C14.5988 8.03659 14.8725 7.99207 15.0563 8.00097C15.2563 8.01069 15.543 8.09817 15.838 8.37403L15.8971 8.43185L15.9274 8.4628L15.9584 8.49284C16.4318 8.95494 16.9409 9.83906 17.3359 10.9833L17.4133 11.2157L17.4219 11.2431L17.4313 11.2704C18.5761 14.66 18.1892 18.3253 16.563 22.3304C16.2187 23.1782 15.8051 23.9648 15.3385 24.6943C14.1424 22.2661 13.2986 19.8152 12.8941 17.5503L12.8923 17.5407Z" fill="white"/>
</svg>
