<svg width="48" height="48" viewBox="0 0 48 48" fill="none" xmlns="http://www.w3.org/2000/svg">
<path d="M9.05921 41.2624L12.9311 40.2602C15.0367 39.7152 17.9378 38.6754 20.8761 36.904C24.6319 41.38 29.4425 45.2063 34.7908 46.8348L38.6168 48L40.9472 40.3479L37.1211 39.1827C33.7224 38.1478 30.1405 35.4907 27.0376 31.8026C28.6154 30.0014 30.0035 27.8655 31.0291 25.3397C33.1211 20.1873 34.0099 14.4705 32.0647 8.71094C31.4826 6.91973 30.4456 4.60064 28.6616 2.82985C25.3169 -0.57934 19.8461 -1.1445 15.9231 2.43924C15.9201 2.44192 15.9172 2.44455 15.9142 2.44723C15.9107 2.4505 15.9069 2.45351 15.9033 2.45679C12.5948 5.46842 11.8042 9.70732 11.6297 12.6327L11.629 12.64L11.6288 12.6472C11.5046 14.8648 11.7155 16.9767 12.076 18.9665C12.7515 22.7412 14.2555 26.6532 16.3163 30.3107C14.407 31.4055 12.4853 32.113 10.9266 32.5164L7.05469 33.5183L9.05921 41.2624ZM19.947 17.5407C19.6655 15.9866 19.5355 14.5266 19.6149 13.1001C19.7499 10.8584 20.3197 9.24954 21.294 8.3668L21.3038 8.35783L21.3133 8.34893C21.6535 8.03659 21.9272 7.99207 22.111 8.00097C22.311 8.01069 22.5976 8.09817 22.8927 8.37403L22.9518 8.43185L22.9821 8.4628L23.013 8.49284C23.4865 8.95494 23.9956 9.83906 24.3906 10.9833L24.468 11.2157L24.4766 11.2431L24.486 11.2704C25.6307 14.66 25.2439 18.3253 23.6177 22.3304C23.2734 23.1782 22.8598 23.9648 22.3932 24.6943C21.1971 22.2661 20.3533 19.8152 19.9488 17.5503L19.947 17.5407Z" fill="#FF2CCE"/>
</svg>
