<svg width="1923" height="2863" viewBox="0 0 1923 2863" fill="none" xmlns="http://www.w3.org/2000/svg">
<g clip-path="url(#clip0_2911_746)">
<mask id="mask0_2911_746" style="mask-type:luminance" maskUnits="userSpaceOnUse" x="0" y="0" width="1923" height="2863">
<path d="M1923 0H0V2863H1923V0Z" fill="white"/>
</mask>
<g mask="url(#mask0_2911_746)">
<path d="M1412.04 2783.22C1233.88 2816.44 974.935 2906.85 838.499 2747.51C788.457 2688.27 788.87 2600.4 833.483 2538.55C894.914 2453.16 987.799 2411.74 1080.09 2362.05C1194.93 2303.63 1314.9 2255.65 1434.52 2206.73C1570.37 2146.77 1735.78 2098.8 1821.82 1970.27C1904.73 1843.92 1815.5 1693.21 1679.24 1663.52C1418.65 1641.57 961.48 1722.36 710.561 1724.25C635.734 1721.65 575.188 1654.14 590.59 1575.48C605.461 1505.14 665.771 1452.03 722.422 1415.79C878.863 1320.13 1147.78 1191.9 1276.66 1076.12C1368.54 1000.05 1351.14 886.573 1283.21 802.363C1144.48 639.667 800.318 625.032 598.32 622.258C436.155 624.147 272.456 645.509 109.937 677.021C-201.233 744.354 -458.643 845.855 -468.144 1050.8C-472.216 1133.36 -429.373 1234.51 -355.195 1283.31C-216.281 1383.87 -48.0376 1328.45 83.5001 1238.23C202.409 1160.98 304.618 1064.67 384.048 947.119C637.15 578.117 473.274 232.838 6.66656 323.422" stroke="#9BFA81" stroke-width="24" stroke-miterlimit="10" stroke-linecap="square"/>
</g>
</g>
<defs>
<clipPath id="clip0_2911_746">
<rect width="1923" height="2863" fill="white"/>
</clipPath>
</defs>
</svg>
