<svg width="812" height="475" viewBox="0 0 812 475" fill="none" xmlns="http://www.w3.org/2000/svg">
<g clip-path="url(#clip0_2911_764)">
<mask id="mask0_2911_764" style="mask-type:luminance" maskUnits="userSpaceOnUse" x="0" y="0" width="812" height="475">
<path d="M812 0H0V475H812V0Z" fill="white"/>
</mask>
<g mask="url(#mask0_2911_764)">
<path d="M109.942 199.016C91.3846 255.964 76.6107 316.473 91.2962 374.536C124.534 506.063 250.363 528.568 314.201 513.608C353.652 504.358 389.835 480.537 410.377 445.602C430.919 410.667 468.44 337.625 381.923 278.858C366.725 268.522 278.811 235.433 310.263 339.965C346.743 461.238 457.732 464.089 501.364 461.643C598.2 456.212 638.097 349.612 609.913 263C574.654 154.559 487.671 46.0876 389.221 -6.95831C329.285 -39.2189 244.055 -16.5234 274.869 66.1772C297.242 126.26 637.966 424.639 818.871 241.77C911.304 148.354 830.372 44.8643 804.987 14.5477C696.278 -115.246 489.9 -211.298 325.968 -153.955" stroke="#9BFA81" stroke-width="24" stroke-miterlimit="10" stroke-linecap="square"/>
</g>
</g>
<defs>
<clipPath id="clip0_2911_764">
<rect width="812" height="475" fill="white"/>
</clipPath>
</defs>
</svg>
