<svg width="1190" height="1521" viewBox="0 0 1190 1521" fill="none" xmlns="http://www.w3.org/2000/svg">
<g clip-path="url(#clip0_3098_2853)">
<path d="M79.1161 490.847C47.0251 589.323 21.4777 693.958 46.8721 794.362C104.348 1021.8 321.935 1060.72 432.326 1034.85C500.545 1018.85 563.115 977.662 598.636 917.252C634.157 856.841 699.04 730.534 549.432 628.913C523.152 611.039 371.128 553.821 425.516 734.581C488.599 944.289 680.523 949.22 755.973 944.989C923.425 935.599 992.416 751.263 943.68 601.49C882.709 413.971 732.295 226.4 562.053 134.671C458.41 78.8852 311.028 118.131 364.313 261.139C402.999 365.037 992.19 881.002 1305.02 564.779C1464.85 403.242 1324.9 224.284 1281.01 171.86C1093.02 -52.5824 736.149 -218.68 452.674 -119.519" stroke="#A2DCFF" stroke-width="24" stroke-miterlimit="10" stroke-linecap="square"/>
</g>
<defs>
<clipPath id="clip0_3098_2853">
<rect width="1190" height="1521" fill="white"/>
</clipPath>
</defs>
</svg>
