<svg width="643" height="956" viewBox="0 0 643 956" fill="none" xmlns="http://www.w3.org/2000/svg">
<g clip-path="url(#clip0_3177_4731)">
<mask id="mask0_3177_4731" style="mask-type:luminance" maskUnits="userSpaceOnUse" x="0" y="0" width="643" height="956">
<path d="M643 0H0V956H643V0Z" fill="white"/>
</mask>
<g mask="url(#mask0_3177_4731)">
<path d="M472.148 929.361C412.576 940.453 325.991 970.643 280.371 917.437C263.638 897.655 263.776 868.314 278.693 847.662C299.234 819.149 330.293 805.318 361.152 788.725C399.552 769.218 439.667 753.197 479.664 736.862C525.089 716.84 580.398 700.822 609.167 657.904C636.89 615.714 607.054 565.389 561.492 555.475C474.358 548.146 321.492 575.123 237.592 575.754C212.571 574.886 192.327 552.343 197.477 526.078C202.449 502.59 222.615 484.856 241.558 472.755C293.867 440.812 383.786 397.994 426.88 359.333C457.602 333.933 451.784 296.041 429.07 267.922C382.683 213.595 267.604 208.708 200.061 207.782C145.838 208.413 91.101 215.546 36.759 226.068C-67.288 248.552 -153.359 282.444 -156.536 350.879C-157.898 378.447 -143.572 412.222 -118.769 428.517C-72.3197 462.096 -16.0636 443.59 27.9191 413.465C67.6791 387.67 101.855 355.51 128.414 316.258C213.045 193.043 158.249 77.7486 2.22801 107.996" stroke="#9BFA81" stroke-width="24" stroke-miterlimit="10" stroke-linecap="square"/>
</g>
</g>
<defs>
<clipPath id="clip0_3177_4731">
<rect width="643" height="956" fill="white"/>
</clipPath>
</defs>
</svg>
