<svg width="812" height="712" viewBox="0 0 812 712" fill="none" xmlns="http://www.w3.org/2000/svg">
<g clip-path="url(#clip0_2911_752)">
<path d="M109.942 381.016C91.3846 437.964 76.6107 498.473 91.2962 556.536C124.534 688.063 250.363 710.568 314.201 695.608C353.652 686.358 389.835 662.537 410.377 627.602C430.919 592.667 468.44 519.625 381.923 460.858C366.725 450.522 278.811 417.433 310.263 521.965C346.743 643.238 457.732 646.089 501.364 643.643C598.2 638.212 638.097 531.612 609.913 445C574.654 336.559 487.671 228.088 389.221 175.042C329.285 142.781 244.055 165.477 274.869 248.177C297.242 308.26 637.966 606.639 818.871 423.77C911.304 330.354 830.372 226.864 804.987 196.548C696.278 66.754 489.9 -29.298 325.968 28.045" stroke="#FF48D4" stroke-width="24" stroke-miterlimit="10" stroke-linecap="square"/>
</g>
<defs>
<clipPath id="clip0_2911_752">
<rect width="812" height="712" fill="white"/>
</clipPath>
</defs>
</svg>
