<svg width="805" height="712" viewBox="0 0 805 712" fill="none" xmlns="http://www.w3.org/2000/svg">
<g clip-path="url(#clip0_3167_4201)">
<path d="M38.9422 381.016C20.3846 437.964 5.61069 498.473 20.2962 556.536C53.5342 688.063 179.363 710.568 243.201 695.608C282.652 686.358 318.835 662.537 339.377 627.602C359.919 592.667 397.44 519.625 310.923 460.858C295.725 450.522 207.811 417.433 239.263 521.965C275.743 643.238 386.732 646.089 430.364 643.643C527.2 638.212 567.097 531.612 538.913 445C503.654 336.559 416.671 228.088 318.221 175.042C258.285 142.781 173.055 165.477 203.869 248.177C226.242 308.26 566.966 606.639 747.871 423.77C840.304 330.354 759.372 226.864 733.987 196.548C625.278 66.754 418.9 -29.298 254.968 28.045" stroke="#9BFA81" stroke-width="24" stroke-miterlimit="10" stroke-linecap="square"/>
</g>
<defs>
<clipPath id="clip0_3167_4201">
<rect width="805" height="712" fill="white"/>
</clipPath>
</defs>
</svg>
