<svg width="24" height="24" viewBox="0 0 24 24" fill="none" xmlns="http://www.w3.org/2000/svg">
<path d="M8.50763 14.6646C8.8155 13.757 9.41396 13.0462 10.279 12.6181C10.6307 12.4438 11.0093 12.3299 11.399 12.2813C11.7493 12.2391 12.1631 12.2533 12.5221 12.2535L16.1291 12.2538C16.4662 12.2538 16.915 12.2397 17.24 12.2651C17.5272 12.2866 17.8105 12.3446 18.083 12.4377C18.9604 12.7354 19.685 13.3657 20.1 14.1922C20.2634 14.5161 20.3724 14.8646 20.4225 15.2236C20.4383 15.3453 20.4473 15.556 20.4667 15.6571V18.579C20.4393 18.8139 20.4356 19.0003 20.3858 19.2371C20.2129 20.027 19.7713 20.7329 19.136 21.235C18.6754 21.5996 18.1303 21.8425 17.5507 21.9412C17.3941 21.9672 17.1583 21.9735 17.0294 22H11.7244C11.6032 21.976 11.4603 21.9706 11.3353 21.952C9.97641 21.7486 8.97235 20.8625 8.51402 19.5873C8.42878 19.6418 8.19689 19.7496 8.09895 19.7984L6.00748 20.8443C5.7841 20.9564 5.38323 21.1729 5.16352 21.2354C4.72377 21.3587 4.25286 21.3018 3.85536 21.0773C3.49079 20.8731 3.21658 20.5396 3.08726 20.1432C3.04443 20.012 3.0342 19.9125 3 19.7902V14.4539L3.00248 14.4448C3.03701 14.3145 3.0423 14.2104 3.09156 14.0733C3.22003 13.7159 3.49083 13.3908 3.81612 13.1982C4.20563 12.966 4.6716 12.8975 5.11174 13.0076C5.36008 13.0716 5.61138 13.2124 5.84194 13.329L6.63731 13.7323C6.82749 13.828 7.02235 13.908 7.21253 14.0066C7.64149 14.229 8.082 14.4362 8.50763 14.6646ZM16.9885 20.1862C17.4578 20.1573 17.8912 19.9613 18.2057 19.6098C18.4011 19.3923 18.5385 19.1293 18.6052 18.845C18.6699 18.5605 18.6554 18.2585 18.6554 17.9665L18.6556 16.2277C18.6556 16.0501 18.6554 15.8733 18.6496 15.6979C18.6245 14.9269 18.0248 14.2158 17.262 14.0755C16.9431 14.0168 16.4964 14.0396 16.1629 14.0397L12.6763 14.0403L12.1294 14.0396C12.0298 14.0396 11.8928 14.0332 11.7962 14.0449C11.2872 14.0883 10.878 14.2777 10.5463 14.6732C10.3632 14.8932 10.2386 15.1554 10.1839 15.4359C10.1378 15.6669 10.1493 15.9593 10.1493 16.1992L10.1494 18.04C10.1491 18.2293 10.1428 18.4582 10.1608 18.642C10.2057 19.0886 10.4259 19.4993 10.7732 19.7846C11.0108 19.9796 11.2949 20.11 11.598 20.1628C11.8368 20.2021 12.2581 20.1895 12.5151 20.1894L15.994 20.1884L16.6319 20.1891C16.7314 20.1892 16.8951 20.198 16.9885 20.1862ZM7.07682 18.2834C7.47777 18.0801 7.87987 17.8785 8.27796 17.6698C8.34235 17.6361 8.33991 17.6239 8.34079 17.5549C8.34474 17.2431 8.32759 16.9226 8.34205 16.6113L6.33112 15.6031L5.75123 15.3112C5.54308 15.2065 5.42889 15.1158 5.18988 15.1286C4.95204 15.1842 4.81746 15.3262 4.80835 15.5766C4.8011 15.7754 4.80364 15.9727 4.80361 16.1716L4.80385 18.2509C4.80401 18.5411 4.73809 18.9399 5.0331 19.0913C5.12697 19.1395 5.2568 19.1757 5.36635 19.14C5.9409 18.8812 6.51281 18.5608 7.07682 18.2834Z" fill="white"/>
<path d="M9.2024 2H9.849L9.86049 2.0029C9.95087 2.02498 10.116 2.03435 10.2169 2.04752C10.3916 2.07178 10.5646 2.10663 10.735 2.15187C11.9035 2.46318 12.9093 3.20663 13.548 4.2311C13.5806 4.28346 13.6257 4.35873 13.649 4.41393C14.4237 3.68946 15.4543 3.30014 16.5159 3.33097C17.5946 3.36186 18.6163 3.82075 19.3545 4.60589C19.95 5.23577 20.3389 6.06001 20.4336 6.91897C20.4462 7.03344 20.4465 7.16563 20.4667 7.27707V7.49564C20.4433 7.63156 20.4446 7.81523 20.4222 7.96371C20.2657 9.04621 19.6768 10.0195 18.7896 10.6623C17.9212 11.2949 16.836 11.5566 15.7737 11.3894C14.711 11.2215 13.7588 10.6387 13.1274 9.76969C13.0509 9.87857 12.8733 10.0548 12.7756 10.1471C12.1572 10.7315 11.3921 11.1387 10.561 11.3256C9.33428 11.5978 8.04937 11.3738 6.98796 10.7026C5.92714 10.0292 5.17827 8.96269 4.9064 7.73813C4.63166 6.50626 4.86322 5.21595 5.54933 4.15563C6.18343 3.17331 7.16128 2.46145 8.29256 2.1586C8.4685 2.11122 8.64717 2.07456 8.82757 2.04881C8.93377 2.03443 9.09436 2.02476 9.19013 2.00288L9.2024 2ZM9.72098 9.5257C11.2745 9.41822 12.4472 8.07606 12.3417 6.52638C12.2361 4.97668 10.8922 3.80505 9.33838 3.90812C7.78143 4.0114 6.6039 5.35518 6.70966 6.90799C6.81542 8.4608 8.16433 9.6334 9.72098 9.5257ZM16.4671 9.52834C17.6557 9.49252 18.5896 8.50145 18.5519 7.31596C18.5142 6.13046 17.5192 5.20046 16.3307 5.23989C15.1447 5.27924 14.2148 6.26912 14.2524 7.45207C14.2901 8.63502 15.2811 9.56408 16.4671 9.52834Z" fill="white"/>
</svg>
